# xmcd CD database file
#
# Track frame offsets:
#	150
#	20898
#	62055
#	83230
#	111746
#	132849
#	171758
#	183355
#	195199
#	205790
#	219262
#	233031
#	243509
#	257540
#	271207
#	287658
#	297704
#
# Disc length: 4115 seconds
#
# Revision: 0
# Processed by: cddbd v1.5.1PL0 Copyright (c) Steve Scherf et al.
# Submitted via: CDex 1.51
#
DISCID=00101111
DTITLE=Gary McFarland - America the Beautiful - Does the Sun Really Shine on the Moon ?
DYEAR=1968
DGENRE=Jazz
TTITLE0=On this Site shall be Erected
TTITLE1=80 miles an hour through Beer Can Country
TTITLE2=Suburbia: Two Poodles and a Plastic Jesus
TTITLE3=If I'm Elected
TTITLE4=Last Rites for the Promised Land
TTITLE5=Due to Lack of Interest, Tomorrow has been Cancelled
TTITLE6=God only Knows
TTITLE7=By the Time I Get to Phoenix
TTITLE8=Sunday will Never be the Same
TTITLE9=Lady Jane
TTITLE10=Flamingo
TTITLE11=Flea Market
TTITLE12=Here, There and Everywhere
TTITLE13=Three Years Ago
TTITLE14=O Morro
TTITLE15=Melancholy Baby
TTITLE16=Up Up and Away
EXTD=YEAR: 1968
EXTT0=
EXTT1=
EXTT2=
EXTT3=
EXTT4=
EXTT5=
EXTT6=
EXTT7=
EXTT8=
EXTT9=
EXTT10=
EXTT11=
EXTT12=
EXTT13=
EXTT14=
EXTT15=
EXTT16=
PLAYORDER=
